Patient4_TMGait_0pt4_02_right_28_GRF.mot
version=1
nRows=32
nColumns=19
inDegrees=no
endheader
time	F1x	F1y	F1z	M1x	M1y	M1z	F2x	F2y	F2z	M2x	M2y	M2z	EC1x	EC1y	EC1z	EC2x	EC2y	EC2z
36.89	10.029	766.2985	71.9303	-234.9921	-81.1786	890.2848	-16.8039	-17.245	2.0153	-3.0877	-1.0472	-17.771	-0.0592	0.0182	-0.0073	-0.0462	0.0165	0.9585
36.9037	4.2596	767.1183	71.394	-235.148	-81.3491	887.6594	-11.3866	-10.7658	1.3087	-1.7272	-0.62046	-10.8948	-0.0592	0.0182	-0.0073	-0.0462	0.0165	0.9585
36.9174	-0.14167	768.0023	70.5996	-235.3603	-80.8575	884.6225	-6.7751	-5.2425	0.71083	-0.56776	-0.25913	-5.0441	-0.0592	0.0182	-0.0073	-0.0462	0.0165	0.9585
36.9311	-2.8047	768.786	69.5481	-235.5884	-79.6391	881.0912	-3.2495	-1.0073	0.25278	0.32262	0.021964	-0.5659	-0.0592	0.0182	-0.0073	-0.0462	0.0165	0.9585
36.9449	-3.7335	769.2928	68.2723	-235.7767	-77.7377	876.9409	-0.8111	1.9493	-0.066801	0.94627	0.23197	2.5564	-0.0592	0.0182	-0.0073	-0.0462	0.0165	0.9585
36.9586	-3.1187	769.3752	66.8177	-235.871	-75.2506	872.0655	0.6835	3.7944	-0.27379	1.3353	0.39496	4.4967	-0.0592	0.0182	-0.0073	-0.0462	0.0165	0.9585
36.9723	-1.24	768.9796	65.2492	-235.8374	-72.3146	866.4776	1.4328	4.7533	-0.3912	1.531	0.52232	5.4861	-0.0592	0.0182	-0.0073	-0.0462	0.0165	0.9585
36.986	1.5958	768.1444	63.6367	-235.6672	-69.0773	860.3076	1.6516	5.0463	-0.45561	1.5725	0.63305	5.7527	-0.0592	0.0182	-0.0073	-0.0462	0.0165	0.9585
36.9997	5.0556	766.9848	62.0511	-235.3731	-65.6973	853.7851	1.5306	4.8433	-0.49604	1.4857	0.74101	5.4721	-0.0592	0.0182	-0.0073	-0.0462	0.0165	0.9585
37.0134	8.8318	765.679	60.5456	-234.9882	-62.3146	847.2007	1.213	4.2437	-0.53954	1.28	0.86485	4.7418	-0.0592	0.0182	-0.0073	-0.0462	0.0165	0.9585
37.0271	12.6882	764.4186	59.157	-234.5585	-59.0358	840.8402	0.81269	3.296	-0.59556	0.95335	1.0061	3.5955	-0.0592	0.0182	-0.0073	-0.0462	0.0165	0.9585
37.0409	16.4508	763.345	57.9187	-234.1237	-55.9475	834.9164	0.41822	2.026	-0.66761	0.50002	1.1573	2.0455	-0.0592	0.0182	-0.0073	-0.0462	0.0165	0.9585
37.0546	20.02	762.482	56.8674	-233.6931	-53.1225	829.4837	0.099957	0.45247	-0.74129	-0.080929	1.289	0.10677	-0.0592	0.0182	-0.0073	-0.0462	0.0165	0.9585
37.0683	23.337	761.6732	56.0459	-233.2209	-50.6328	824.3959	-0.070373	-1.3571	-0.79648	-0.76656	1.3538	-2.1373	-0.0592	0.0182	-0.0073	-0.0462	0.0165	0.9585
37.082	26.3631	760.5607	55.4936	-232.5984	-48.542	819.2851	-0.0006969	-3.2127	-0.80056	-1.4824	1.2745	-4.4478	-0.0592	0.0182	-0.0073	-0.0462	0.0165	0.9585
37.0957	29.0894	758.6937	55.2557	-231.684	-46.9102	813.6716	0.4206	-4.7526	-0.70649	-2.0809	0.94442	-6.3721	-0.0592	0.0182	-0.0073	-0.0462	0.0165	0.9585
37.1094	31.5508	755.7395	55.362	-230.3695	-45.7684	807.1872	1.3075	-5.3783	-0.44736	-2.3158	0.23109	-7.1546	-0.0592	0.0182	-0.0073	-0.0462	0.0165	0.9585
37.1231	33.8179	751.5915	55.832	-228.6186	-45.1223	799.6916	2.7777	-4.1921	0.056866	-1.8206	-1.0113	-5.673	-0.0592	0.0182	-0.0073	-0.0462	0.0165	0.9585
37.1369	35.9805	746.3567	56.674	-226.4634	-44.9562	791.2784	4.919	0.030589	0.88734	-0.10049	-2.9154	-0.39202	-0.0592	0.0182	-0.0073	-0.0462	0.0165	0.9585
37.1506	38.1206	740.2252	57.8678	-223.9648	-45.2243	782.1441	7.7287	8.768	2.1167	3.439	-5.5597	10.5489	-0.0592	0.0182	-0.0073	-0.0462	0.0165	0.9585
37.1643	40.2676	733.2773	59.3395	-221.1543	-45.8392	772.3853	11.0303	23.595	3.7645	9.4288	-8.8816	29.1301	-0.0592	0.0182	-0.0073	-0.0462	0.0165	0.9585
37.178	42.3547	725.2769	60.9277	-217.9718	-46.652	761.8052	14.3807	45.8648	5.7575	18.4078	-12.5936	57.0538	-0.0592	0.0182	-0.0073	-0.0462	0.0165	0.9585
37.1917	44.2254	715.5622	62.3923	-214.2304	-47.4619	749.783	16.9459	76.1352	7.8668	30.5922	-16.0571	95.0345	-0.0592	0.0182	-0.0073	-0.0462	0.0165	0.9585
37.2054	45.6408	703.119	63.4319	-209.6407	-48.0327	735.3411	17.3982	113.3661	9.6364	45.5528	-18.1625	141.7938	-0.0592	0.0182	-0.0073	-0.0462	0.0165	0.9585
37.2191	46.3266	686.8297	63.7465	-203.8932	-48.1417	717.3803	14.5921	154.5078	10.3374	62.0265	-17.5653	193.581	-0.0592	0.0182	-0.0073	-0.0462	0.0165	0.9585
37.2329	46.0994	665.9431	63.1161	-196.8009	-47.6224	695.1248	8.8753	194.9603	9.3331	78.1143	-13.6684	244.6995	-0.0592	0.0182	-0.0073	-0.0462	0.0165	0.9585
37.2466	44.9551	640.4069	61.4884	-188.3955	-46.4225	668.4523	1.7888	230.3097	6.5957	92.0478	-7.1253	289.5217	-0.0592	0.0182	-0.0073	-0.0462	0.0165	0.9585
37.2603	43.1038	610.8401	58.9909	-178.9134	-44.602	637.8706	-5.4186	259.4303	2.5125	103.3807	1.0829	326.5182	-0.0592	0.0182	-0.0073	-0.0462	0.0165	0.9585
37.274	40.8983	578.1257	55.8255	-168.6649	-42.2468	604.1316	-12.1355	284.1996	-2.389	112.8883	10.0856	357.983	-0.0592	0.0182	-0.0073	-0.0462	0.0165	0.9585
37.2877	38.6667	542.9266	52.1592	-157.8786	-39.4117	567.7901	-18.2135	307.3735	-7.5801	121.7153	19.1832	387.3704	-0.0592	0.0182	-0.0073	-0.0462	0.0165	0.9585
37.3014	36.5644	505.5024	48.0522	-146.6397	-36.0996	529.0335	-23.6568	331.3605	-12.5462	130.8677	27.7677	417.6561	-0.0592	0.0182	-0.0073	-0.0462	0.0165	0.9585
37.3151	34.5439	465.8481	43.4943	-134.9334	-32.3096	487.8389	-28.4169	357.8444	-17.0865	141.0346	35.5682	450.8758	-0.0592	0.0182	-0.0073	-0.0462	0.0165	0.9585
